# xmcd
#
# Track frame offsets: 
#        150
#        16954
#        32098
#        49002
#        66756
#        80422
#        98454
#        113480
#        128415
#        144496
#
# Disc length: 2124 seconds
#
# Revision: 1
# Processed by: cddbd v1.5.2PL0 Copyright (c) Steve Scherf et al.
# Submitted via: ExactAudioCopy v0.95b4
#
DISCID=70084a0a
DTITLE=ยิ่งยง ยอดบัวงาม - ไม่เจตนามีเมียน้อย
DYEAR=2006
DGENRE=Country
TTITLE0=ไม่เจตนามีเมียน้อย
TTITLE1=เก็บตังค์โต๊ะนี้
TTITLE2=ข้อความคนช้ำ
TTITLE3=รู้อย่างนี้
TTITLE4=เมาค้าง
TTITLE5=ความดีถวาย
TTITLE6=ลูกสาวพ่อ
TTITLE7=ปรารถนาแห่งหัวใจ
TTITLE8=วางปืนกอดแฟน
TTITLE9=หนุ่มบ้านนา
EXTD=
EXTT0=
EXTT1=
EXTT2=
EXTT3=
EXTT4=
EXTT5=
EXTT6=
EXTT7=
EXTT8=
EXTT9=
PLAYORDER=
